<?xml version="1.0" encoding="UTF-8" standalone="no"?>
<svg
   width="456"
   height="456"
   viewBox="0 0 456 456"
   fill="none"
   version="1.1"
   id="svg32"
   sodipodi:docname="logo.svg"
   inkscape:version="1.4.2 (f4327f4, 2025-05-13)"
   inkscape:export-filename="..\docs\images\logo.png"
   inkscape:export-xdpi="13.150685"
   inkscape:export-ydpi="13.150685"
   xmlns:inkscape="http://www.inkscape.org/namespaces/inkscape"
   xmlns:sodipodi="http://sodipodi.sourceforge.net/DTD/sodipodi-0.dtd"
   xmlns="http://www.w3.org/2000/svg"
   xmlns:svg="http://www.w3.org/2000/svg">
  <sodipodi:namedview
     id="namedview32"
     pagecolor="#ffffff"
     bordercolor="#000000"
     borderopacity="0.25"
     inkscape:showpageshadow="2"
     inkscape:pageopacity="0.0"
     inkscape:pagecheckerboard="0"
     inkscape:deskcolor="#d1d1d1"
     inkscape:zoom="1.9231928"
     inkscape:cx="228.00626"
     inkscape:cy="161.45027"
     inkscape:window-width="2496"
     inkscape:window-height="1558"
     inkscape:window-x="-11"
     inkscape:window-y="-11"
     inkscape:window-maximized="1"
     inkscape:current-layer="svg32"
     showguides="true"
     inkscape:export-bgcolor="#ffffff00" />
  <path
     d="M 305.84365,24.70608 H 148.48819 c -21.1212,0 -40.63762,11.292218 -51.197976,29.622774 L 18.90015,190.39787 c -5.568913,9.66781 -8.500776,20.63188 -8.500776,31.79353 H 227.16533 c 0,-1.25221 0.32901,-2.24376 0.95377,-3.32814 L 335.40221,32.643409 C 326.56172,27.529139 316.404,24.70608 305.84365,24.70608 Z"
     fill="url(#paint0_linear_849_6218)"
     id="path1"
     style="fill:url(#paint0_linear_849_6218);stroke-width:1.18904" />
  <path
     d="M 305.84365,419.67668 H 148.48819 c -21.12108,0 -40.6375,-11.2926 -51.197738,-29.62357 L 18.90015,253.98374 C 13.371039,244.38616 10.440953,233.26973 10.399374,222.1914 H 227.16533 c 0,0.94035 0.24586,2.10092 0.71503,2.9151 l 107.52067,186.6331 c -8.83812,5.11482 -18.99703,7.93708 -29.55738,7.93708 z"
     fill="url(#paint1_linear_849_6218)"
     id="path2"
     style="fill:url(#paint1_linear_849_6218);stroke-width:1.18904" />
  <path
     d="m 435.43049,253.98135 -78.39088,136.07058 c -5.27959,9.16428 -12.79929,16.57047 -21.63858,21.68529 L 227.88036,225.10412 c -0.46917,-0.81419 -0.71503,-1.73668 -0.71503,-2.67585 0,-1.25222 0.32901,-2.48301 0.95377,-3.5674 L 335.40221,32.641516 c 8.83811,5.114234 16.35781,12.519946 21.6374,21.685313 L 435.43049,190.3955 c 5.56822,9.66661 8.50079,20.63186 8.50079,31.79351 0,11.16167 -2.93257,22.12811 -8.50079,31.79234 z"
     fill="url(#paint2_linear_849_6218)"
     id="path3"
     style="fill:url(#paint2_linear_849_6218);stroke-width:1.18904" />
  <path
     d="m 435.43049,253.98135 -78.39088,136.07058 c -5.27959,9.16428 -12.79929,16.57047 -21.63858,21.68529 L 227.88036,225.10412 c -0.46917,-0.81419 -0.71503,-1.73668 -0.71503,-2.67585 0,-1.25222 0.32901,-2.48301 0.95377,-3.5674 L 335.40221,32.641516 c 8.83811,5.114234 16.35781,12.519946 21.6374,21.685313 L 435.43049,190.3955 c 5.56822,9.66661 8.50079,20.63186 8.50079,31.79351 0,11.16167 -2.93257,22.12811 -8.50079,31.79234 z"
     fill="url(#paint3_linear_849_6218)"
     id="path4"
     style="fill:url(#paint3_linear_849_6218);stroke-width:1.18904" />
  <path
     d="m 435.43049,253.98135 -78.39088,136.07058 c -5.27959,9.16428 -12.79929,16.57047 -21.63858,21.68529 L 227.88036,225.10412 c -0.46917,-0.81419 -0.71503,-1.73668 -0.71503,-2.67585 0,-1.25222 0.32901,-2.48301 0.95377,-3.5674 L 335.40221,32.641516 c 8.83811,5.114234 16.35781,12.519946 21.6374,21.685313 L 435.43049,190.3955 c 5.56822,9.66661 8.50079,20.63186 8.50079,31.79351 0,11.16167 -2.93257,22.12811 -8.50079,31.79234 z"
     fill="url(#paint4_linear_849_6218)"
     id="path5"
     style="fill:url(#paint4_linear_849_6218);stroke-width:1.18904" />
  <path
     d="m 435.43049,253.98135 -78.39088,136.07058 c -5.27959,9.16428 -12.79929,16.57047 -21.63858,21.68529 L 227.88036,225.10412 c -0.46917,-0.81419 -0.71503,-1.73668 -0.71503,-2.67585 0,-1.25222 0.32901,-2.48301 0.95377,-3.5674 L 335.40221,32.641516 c 8.83811,5.114234 16.35781,12.519946 21.6374,21.685313 L 435.43049,190.3955 c 5.56822,9.66661 8.50079,20.63186 8.50079,31.79351 0,11.16167 -2.93257,22.12811 -8.50079,31.79234 z"
     fill="url(#paint5_linear_849_6218)"
     id="path6"
     style="fill:url(#paint5_linear_849_6218);stroke-width:1.18904" />
  <path
     d="m 227.30548,83.951705 -39.81961,69.120025 -38.54632,66.94971 c -0.38128,0.65944 -0.58083,1.42362 -0.58083,2.18543 l 0.007,0.22379 H 71.253594 l -0.0019,-0.23926 c 0,-2.52824 0.649228,-5.0553 1.947687,-7.3324 6.761909,-11.85561 20.926168,-36.47267 35.510179,-61.78727 h -0.0474 l 34.13179,-59.245821 c 3.52052,-6.110165 10.02587,-9.874204 17.06572,-9.874204 z"
     fill="#d9d9d9"
     id="path7"
     style="stroke-width:1.18904" />
  <path
     d="m 227.30548,83.951705 -39.81961,69.120025 -38.54632,66.94971 c -0.38128,0.65944 -0.58083,1.42362 -0.58083,2.18543 l 0.007,0.22379 H 71.253594 l -0.0019,-0.23926 c 0,-2.52824 0.649228,-5.0553 1.947687,-7.3324 6.761909,-11.85561 20.926168,-36.47267 35.510179,-61.78727 h -0.0474 l 34.13179,-59.245821 c 3.52052,-6.110165 10.02587,-9.874204 17.06572,-9.874204 z"
     fill="url(#paint6_linear_849_6218)"
     id="path8"
     style="fill:url(#paint6_linear_849_6218);stroke-width:1.18904" />
  <path
     d="m 227.30548,83.951705 78.52942,0.04496 -39.76362,69.241175 -78.58541,-0.16611 -19.27317,33.47486 41.98138,0.98207 -17.66532,32.22199 c -0.38128,0.65945 -0.58083,1.42363 -0.58083,2.18544 l 0.007,0.22377 -120.701469,0.2708 -0.0019,-0.23926 c 0,-2.52824 0.649228,-5.0553 1.947686,-7.3324 6.761909,-11.85561 20.926169,-36.47267 35.510183,-61.78727 h -0.0471 l 34.13179,-59.245819 c 3.52052,-6.110165 10.02587,-9.874204 17.06572,-9.874204 z"
     fill="url(#paint7_linear_849_6218)"
     id="path9"
     sodipodi:nodetypes="cccccccccccccccsc"
     style="fill:url(#paint7_linear_849_6218);stroke-width:1.18904" />
  <path
     d="m 187.41105,291.44915 h 0.0285 l -38.5,-67.08422 c -0.34089,-0.59278 -0.53688,-1.2546 -0.57369,-1.9319 l -0.007,-0.22259 H 71.251694 c 0.0029,2.5223 0.652079,5.0434 1.947687,7.31454 6.773906,11.87704 20.976054,36.56077 35.586669,61.9194 h -0.0469 l 34.05494,59.11144 c 3.51933,6.10992 10.02468,9.87491 17.06572,9.87491 h 67.4635 z"
     fill="#d9d9d9"
     id="path10"
     style="stroke-width:1.18904" />
  <path
     d="m 187.41105,291.44915 h 0.0285 l -19.25001,-33.54211 41.56434,-0.4335 -17.24984,-33.05391 c -0.3409,-0.59278 -0.48228,-1.39136 -0.5191,-2.06866 l -0.007,-0.22259 -120.726113,0.082 c 0.0029,2.52231 0.65208,5.04341 1.947687,7.31454 6.773906,11.87704 20.976054,36.56077 35.586676,61.9194 h -0.0469 l 34.05493,59.11144 c 3.51933,6.10992 10.02469,9.87491 17.06572,9.87491 h 67.4635 l 78.54581,-0.0192 -39.7337,-68.93093 z"
     fill="url(#paint8_linear_849_6218)"
     id="path11"
     sodipodi:nodetypes="ccccccccccccscccc"
     style="fill:url(#paint8_linear_849_6218);stroke-width:1.18904" />
  <path
     d="m 266.03711,153.07173 39.89443,69.26013 -39.81723,69.11372 2.13202,3.71618 37.58663,65.26897 38.90322,-68.9272 34.42854,60.07765 c 0,0 40.76879,-71.03966 40.73349,-70.49171 0,0 -33.18033,-57.09098 -34.47379,-59.36448 l 34.09305,-58.96701 -39.43962,-68.521736 -34.32432,58.975946 h -0.0237 L 305.83296,83.951705 Z"
     fill="url(#paint9_linear_849_6218)"
     id="path13"
     sodipodi:nodetypes="cccccccsccccccc"
     style="fill:url(#paint9_linear_849_6218);stroke-width:1.18904" />
  <defs
     id="defs32">
    <linearGradient
       id="linearGradient34"
       x1="197.709"
       y1="6.7695899"
       x2="459.93799"
       y2="144.513"
       gradientUnits="userSpaceOnUse">
      <stop
         stop-color="#0078D4"
         id="stop33"
         offset="0"
         style="stop-color:#d40000;stop-opacity:1;" />
      <stop
         offset="1"
         stop-color="#004695"
         id="stop34" />
    </linearGradient>
    <linearGradient
       id="paint0_linear_849_6218"
       x1="99.545403"
       y1="8.3984203"
       x2="28.4252"
       y2="121.153"
       gradientUnits="userSpaceOnUse"
       gradientTransform="matrix(1.1877587,0,0,1.1903229,10.399373,24.583518)">
      <stop
         stop-color="#3BD5FF"
         id="stop13" />
      <stop
         offset="1"
         stop-color="#0FAFFF"
         id="stop14" />
    </linearGradient>
    <linearGradient
       id="paint1_linear_849_6218"
       x1="99.545502"
       y1="166.01199"
       x2="86.823402"
       y2="333.582"
       gradientUnits="userSpaceOnUse"
       gradientTransform="matrix(1.1877587,0,0,1.1903229,10.399373,24.583518)">
      <stop
         stop-color="#0FAFFF"
         id="stop15" />
      <stop
         offset="1"
         stop-color="#0078D4"
         id="stop16" />
    </linearGradient>
    <linearGradient
       id="paint2_linear_849_6218"
       x1="182.5"
       y1="6.7695899"
       x2="457.27399"
       y2="164.22301"
       gradientUnits="userSpaceOnUse"
       gradientTransform="matrix(1.1877587,0,0,1.1903229,10.399373,24.583518)">
      <stop
         stop-color="#0FAFFF"
         id="stop17" />
      <stop
         offset="1"
         stop-color="#0078D4"
         id="stop18" />
    </linearGradient>
    <linearGradient
       id="paint3_linear_849_6218"
       x1="182.5"
       y1="6.7695899"
       x2="457.27399"
       y2="164.22301"
       gradientUnits="userSpaceOnUse"
       gradientTransform="matrix(1.1877587,0,0,1.1903229,10.399373,24.583518)">
      <stop
         stop-color="#3BD5FF"
         id="stop19" />
      <stop
         offset="1"
         stop-color="#0FAFFF"
         id="stop20" />
    </linearGradient>
    <linearGradient
       id="paint4_linear_849_6218"
       x1="182.5"
       y1="6.7695899"
       x2="457.27399"
       y2="164.22301"
       gradientUnits="userSpaceOnUse"
       gradientTransform="matrix(1.1877587,0,0,1.1903229,10.399373,24.583518)">
      <stop
         stop-color="#0FAFFF"
         id="stop21" />
      <stop
         offset="1"
         stop-color="#0078D4"
         id="stop22" />
    </linearGradient>
    <linearGradient
       id="paint5_linear_849_6218"
       x1="197.709"
       y1="6.7695899"
       x2="459.93799"
       y2="144.513"
       gradientUnits="userSpaceOnUse"
       gradientTransform="matrix(1.1877587,0,0,1.1903229,10.399373,24.583518)">
      <stop
         stop-color="#0078D4"
         id="stop23" />
      <stop
         offset="1"
         stop-color="#004695"
         id="stop24" />
    </linearGradient>
    <linearGradient
       id="paint6_linear_849_6218"
       x1="116.926"
       y1="49.875702"
       x2="141.923"
       y2="160.569"
       gradientUnits="userSpaceOnUse"
       gradientTransform="matrix(1.1877587,0,0,1.1903229,10.399373,24.583518)">
      <stop
         offset="0.173594"
         stop-color="#E6F9FE"
         id="stop25" />
      <stop
         offset="1"
         stop-color="#9DEAFF"
         id="stop26" />
    </linearGradient>
    <linearGradient
       id="paint7_linear_849_6218"
       x1="51.232899"
       y1="49.875702"
       x2="166.714"
       y2="180.295"
       gradientUnits="userSpaceOnUse"
       gradientTransform="matrix(1.1877587,0,0,1.1903229,10.399373,24.583518)">
      <stop
         stop-color="#FEFEFE"
         id="stop27" />
      <stop
         offset="1"
         stop-color="#E6F9FE"
         id="stop28" />
    </linearGradient>
    <linearGradient
       id="paint8_linear_849_6218"
       x1="51.232899"
       y1="180.474"
       x2="149.65199"
       y2="307.668"
       gradientUnits="userSpaceOnUse"
       gradientTransform="matrix(1.1877587,0,0,1.1903229,10.399373,24.583518)">
      <stop
         stop-color="#E6F9FE"
         id="stop29" />
      <stop
         offset="1"
         stop-color="#9DEAFF"
         id="stop30" />
    </linearGradient>
    <linearGradient
       id="paint9_linear_849_6218"
       x1="215.22701"
       y1="49.875702"
       x2="382.362"
       y2="120.852"
       gradientUnits="userSpaceOnUse"
       gradientTransform="matrix(1.1877587,0,0,1.1903229,10.399373,24.583518)">
      <stop
         stop-color="#9DEAFF"
         id="stop31" />
      <stop
         offset="1"
         stop-color="#3BD5FF"
         id="stop32" />
    </linearGradient>
  </defs>
</svg>
