<?xml version="1.0" encoding="UTF-8" standalone="no"?>
<svg
   width="365"
   height="332"
   viewBox="0 0 365 332"
   fill="none"
   version="1.1"
   id="svg32"
   sodipodi:docname="logo.svg"
   inkscape:version="1.4.2 (f4327f4, 2025-05-13)"
   xmlns:inkscape="http://www.inkscape.org/namespaces/inkscape"
   xmlns:sodipodi="http://sodipodi.sourceforge.net/DTD/sodipodi-0.dtd"
   xmlns="http://www.w3.org/2000/svg"
   xmlns:svg="http://www.w3.org/2000/svg">
  <sodipodi:namedview
     id="namedview32"
     pagecolor="#ffffff"
     bordercolor="#000000"
     borderopacity="0.25"
     inkscape:showpageshadow="2"
     inkscape:pageopacity="0.0"
     inkscape:pagecheckerboard="0"
     inkscape:deskcolor="#d1d1d1"
     inkscape:zoom="1.9231928"
     inkscape:cx="227.74628"
     inkscape:cy="161.45027"
     inkscape:window-width="2496"
     inkscape:window-height="1558"
     inkscape:window-x="-11"
     inkscape:window-y="-11"
     inkscape:window-maximized="1"
     inkscape:current-layer="svg32"
     showguides="true" />
  <path
     d="M248.741 0.102966H116.26C98.4776 0.102966 82.0463 9.58965 73.1553 24.9893L7.15699 139.302C2.4684 147.424 0 156.635 0 166.012H182.5C182.5 164.96 182.777 164.127 183.303 163.216L273.627 6.77118C266.184 2.47464 257.632 0.102966 248.741 0.102966Z"
     fill="url(#paint0_linear_849_6218)"
     id="path1" />
  <path
     d="M248.741 331.921H116.26C98.4777 331.921 82.0464 322.434 73.1555 307.034L7.15699 192.721C2.50191 184.658 0.0350068 175.319 0 166.012H182.5C182.5 166.802 182.707 167.777 183.102 168.461L273.626 325.253C266.185 329.55 257.632 331.921 248.741 331.921Z"
     fill="url(#paint1_linear_849_6218)"
     id="path2" />
  <path
     d="M357.843 192.719L291.844 307.033C287.399 314.732 281.068 320.954 273.626 325.251L183.102 168.459C182.707 167.775 182.5 167 182.5 166.211C182.5 165.159 182.777 164.125 183.303 163.214L273.627 6.76959C281.068 11.0661 287.399 17.2877 291.844 24.9876L357.843 139.3C362.531 147.421 365 156.633 365 166.01C365 175.387 362.531 184.6 357.843 192.719Z"
     fill="url(#paint2_linear_849_6218)"
     id="path3" />
  <path
     d="M357.843 192.719L291.844 307.033C287.399 314.732 281.068 320.954 273.626 325.251L183.102 168.459C182.707 167.775 182.5 167 182.5 166.211C182.5 165.159 182.777 164.125 183.303 163.214L273.627 6.76959C281.068 11.0661 287.399 17.2877 291.844 24.9876L357.843 139.3C362.531 147.421 365 156.633 365 166.01C365 175.387 362.531 184.6 357.843 192.719Z"
     fill="url(#paint3_linear_849_6218)"
     id="path4" />
  <path
     d="M357.843 192.719L291.844 307.033C287.399 314.732 281.068 320.954 273.626 325.251L183.102 168.459C182.707 167.775 182.5 167 182.5 166.211C182.5 165.159 182.777 164.125 183.303 163.214L273.627 6.76959C281.068 11.0661 287.399 17.2877 291.844 24.9876L357.843 139.3C362.531 147.421 365 156.633 365 166.01C365 175.387 362.531 184.6 357.843 192.719Z"
     fill="url(#paint4_linear_849_6218)"
     id="path5" />
  <path
     d="M357.843 192.719L291.844 307.033C287.399 314.732 281.068 320.954 273.626 325.251L183.102 168.459C182.707 167.775 182.5 167 182.5 166.211C182.5 165.159 182.777 164.125 183.303 163.214L273.627 6.76959C281.068 11.0661 287.399 17.2877 291.844 24.9876L357.843 139.3C362.531 147.421 365 156.633 365 166.01C365 175.387 362.531 184.6 357.843 192.719Z"
     fill="url(#paint5_linear_849_6218)"
     id="path6" />
  <path
     d="M182.618 49.8757L149.093 107.944L116.64 164.189C116.319 164.743 116.151 165.385 116.151 166.025L116.157 166.213H51.2345L51.2329 166.012C51.2329 163.888 51.7795 161.765 52.8727 159.852C58.5657 149.892 70.4909 129.211 82.7695 107.944H82.7297L111.466 58.1711C114.43 53.0379 119.907 49.8757 125.834 49.8757H182.618Z"
     fill="#D9D9D9"
     id="path7" />
  <path
     d="M182.618 49.8757L149.093 107.944L116.64 164.189C116.319 164.743 116.151 165.385 116.151 166.025L116.157 166.213H51.2345L51.2329 166.012C51.2329 163.888 51.7795 161.765 52.8727 159.852C58.5657 149.892 70.4909 129.211 82.7695 107.944H82.7297L111.466 58.1711C114.43 53.0379 119.907 49.8757 125.834 49.8757H182.618Z"
     fill="url(#paint6_linear_849_6218)"
     id="path8" />
  <path
     d="m 182.618,49.8757 66.11563,0.03777 -33.47786,58.17008 -66.16277,-0.13955 -16.2265,28.1225 35.34503,0.82505 -14.87282,27.06996 c -0.321,0.554 -0.489,1.196 -0.489,1.836 l 0.006,0.188 -101.62121,0.22749 -0.0016,-0.201 c 0,-2.124 0.5466,-4.247 1.6398,-6.16 5.693,-9.96 17.6182,-30.641 29.8968,-51.908 H 82.7297 L 111.466,58.1711 c 2.964,-5.1332 8.441,-8.2954 14.368,-8.2954 z"
     fill="url(#paint7_linear_849_6218)"
     id="path9"
     sodipodi:nodetypes="cccccccccccccccsc" />
  <path
     d="M149.03 224.196H149.054L116.64 167.838C116.353 167.34 116.188 166.784 116.157 166.215L116.151 166.028H51.2329C51.2354 168.147 51.7819 170.265 52.8727 172.173C58.5758 182.151 70.5329 202.888 82.8339 224.192H82.7944L111.466 273.852C114.429 278.985 119.906 282.148 125.834 282.148H182.633L149.03 224.196Z"
     fill="#D9D9D9"
     id="path10" />
  <path
     d="m 149.03,224.196 h 0.024 l -16.207,-28.179 34.99392,-0.36418 -14.52302,-27.76886 c -0.287,-0.498 -0.40604,-1.1689 -0.43704,-1.7379 l -0.006,-0.187 -101.64196,0.0689 c 0.0025,2.119 0.549,4.237 1.6398,6.145 5.7031,9.978 17.6602,30.715 29.9612,52.019 h -0.0395 l 28.6716,49.66 c 2.963,5.133 8.44,8.296 14.368,8.296 h 56.799 l 66.12944,-0.0162 -33.45268,-57.90944 z"
     fill="url(#paint8_linear_849_6218)"
     id="path11"
     sodipodi:nodetypes="ccccccccccccscccc" />
  <path
     d="m 215.227,107.944 33.588,58.186 -33.523,58.063 1.795,3.122 31.645,54.833 32.75347,-57.90631 28.98615,50.47173 c 0,0 34.32413,-59.68101 34.29441,-59.22067 0,0 -27.93524,-47.96259 -29.02424,-49.87259 L 344.44548,116.0815 311.2404,58.515826 282.342,108.062 h -0.02 l -33.59,-58.1863 z"
     fill="url(#paint9_linear_849_6218)"
     id="path13"
     sodipodi:nodetypes="cccccccsccccccc"
     style="fill:url(#paint9_linear_849_6218)" />
  <defs
     id="defs32">
    <linearGradient
       id="linearGradient34"
       x1="197.709"
       y1="6.76959"
       x2="459.938"
       y2="144.513"
       gradientUnits="userSpaceOnUse">
      <stop
         stop-color="#0078D4"
         id="stop33"
         offset="0"
         style="stop-color:#d40000;stop-opacity:1;" />
      <stop
         offset="1"
         stop-color="#004695"
         id="stop34" />
    </linearGradient>
    <linearGradient
       id="paint0_linear_849_6218"
       x1="99.5454"
       y1="8.39842"
       x2="28.4252"
       y2="121.153"
       gradientUnits="userSpaceOnUse">
      <stop
         stop-color="#3BD5FF"
         id="stop13" />
      <stop
         offset="1"
         stop-color="#0FAFFF"
         id="stop14" />
    </linearGradient>
    <linearGradient
       id="paint1_linear_849_6218"
       x1="99.5455"
       y1="166.012"
       x2="86.8234"
       y2="333.582"
       gradientUnits="userSpaceOnUse">
      <stop
         stop-color="#0FAFFF"
         id="stop15" />
      <stop
         offset="1"
         stop-color="#0078D4"
         id="stop16" />
    </linearGradient>
    <linearGradient
       id="paint2_linear_849_6218"
       x1="182.5"
       y1="6.76959"
       x2="457.274"
       y2="164.223"
       gradientUnits="userSpaceOnUse">
      <stop
         stop-color="#0FAFFF"
         id="stop17" />
      <stop
         offset="1"
         stop-color="#0078D4"
         id="stop18" />
    </linearGradient>
    <linearGradient
       id="paint3_linear_849_6218"
       x1="182.5"
       y1="6.76959"
       x2="457.274"
       y2="164.223"
       gradientUnits="userSpaceOnUse">
      <stop
         stop-color="#3BD5FF"
         id="stop19" />
      <stop
         offset="1"
         stop-color="#0FAFFF"
         id="stop20" />
    </linearGradient>
    <linearGradient
       id="paint4_linear_849_6218"
       x1="182.5"
       y1="6.76959"
       x2="457.274"
       y2="164.223"
       gradientUnits="userSpaceOnUse">
      <stop
         stop-color="#0FAFFF"
         id="stop21" />
      <stop
         offset="1"
         stop-color="#0078D4"
         id="stop22" />
    </linearGradient>
    <linearGradient
       id="paint5_linear_849_6218"
       x1="197.709"
       y1="6.76959"
       x2="459.938"
       y2="144.513"
       gradientUnits="userSpaceOnUse">
      <stop
         stop-color="#0078D4"
         id="stop23" />
      <stop
         offset="1"
         stop-color="#004695"
         id="stop24" />
    </linearGradient>
    <linearGradient
       id="paint6_linear_849_6218"
       x1="116.926"
       y1="49.8757"
       x2="141.923"
       y2="160.569"
       gradientUnits="userSpaceOnUse">
      <stop
         offset="0.173594"
         stop-color="#E6F9FE"
         id="stop25" />
      <stop
         offset="1"
         stop-color="#9DEAFF"
         id="stop26" />
    </linearGradient>
    <linearGradient
       id="paint7_linear_849_6218"
       x1="51.2329"
       y1="49.8757"
       x2="166.714"
       y2="180.295"
       gradientUnits="userSpaceOnUse">
      <stop
         stop-color="#FEFEFE"
         id="stop27" />
      <stop
         offset="1"
         stop-color="#E6F9FE"
         id="stop28" />
    </linearGradient>
    <linearGradient
       id="paint8_linear_849_6218"
       x1="51.2329"
       y1="180.474"
       x2="149.652"
       y2="307.668"
       gradientUnits="userSpaceOnUse">
      <stop
         stop-color="#E6F9FE"
         id="stop29" />
      <stop
         offset="1"
         stop-color="#9DEAFF"
         id="stop30" />
    </linearGradient>
    <linearGradient
       id="paint9_linear_849_6218"
       x1="215.227"
       y1="49.8757"
       x2="382.362"
       y2="120.852"
       gradientUnits="userSpaceOnUse">
      <stop
         stop-color="#9DEAFF"
         id="stop31" />
      <stop
         offset="1"
         stop-color="#3BD5FF"
         id="stop32" />
    </linearGradient>
  </defs>
</svg>
